<?xml version="1.0" encoding="UTF-8"?><svg id="assets" xmlns="http://www.w3.org/2000/svg" viewBox="0 0 256 176"><path d="M242.86035,176c-1.36328,0-2.64844-.53516-3.61914-1.50586l-14.57422-14.57324-13.77148,13.76953c-1.48438,1.48633-3.45996,2.30469-5.56152,2.30469-2.10254,0-4.07812-.81836-5.56348-2.30566l-13.77051-13.76855-13.77148,13.76953c-1.48438,1.48633-3.45996,2.30469-5.5625,2.30469-2.10156,0-4.07715-.81836-5.5625-2.30566l-13.77051-13.76855-13.77051,13.76953c-1.48438,1.48633-3.46094,2.30469-5.5625,2.30469s-4.07812-.81836-5.56348-2.30566l-13.76953-13.76855-13.77148,13.76953c-1.48438,1.48633-3.45996,2.30469-5.56152,2.30469-2.10254,0-4.07812-.81836-5.56348-2.30566l-13.77051-13.76855-13.77148,13.76953c-1.48438,1.48633-3.45996,2.30469-5.5625,2.30469-2.10156,0-4.07715-.81836-5.5625-2.30566l-13.77051-13.76855-14.57422,14.57324c-.9707.9707-2.25586,1.50586-3.62012,1.50586-2.83301,0-5.13867-2.30273-5.13867-5.13379V4c0-2.20898,1.79102-4,4-4h232c2.20898,0,4,1.79102,4,4v166.86621c0,1.41797-.59082,2.7832-1.62012,3.74512-.95801.89551-2.20801,1.38867-3.51855,1.38867h-.00098Z" fill="#3e3a39" stroke-width="0"/><path d="M12,3.99987v166.86638c0,1.00759,1.21824,1.5122,1.93074.79973l14.66844-14.66811c1.51003-1.51,3.95827-1.50999,5.46829.00002l13.86504,13.8649c1.51003,1.51001,3.95828,1.51001,5.46831,0l13.86502-13.86488c1.51003-1.51001,3.95828-1.51001,5.46831,0l13.86502,13.86488c1.51003,1.51001,3.95828,1.51001,5.46831,0l13.86502-13.86488c1.51003-1.51001,3.95828-1.51001,5.46831,0l13.86502,13.86488c1.51003,1.51001,3.95828,1.51001,5.46831,0l13.86502-13.86488c1.51003-1.51001,3.95828-1.51001,5.46831,0l13.86502,13.86488c1.51003,1.51001,3.95828,1.51001,5.46831,0l13.86502-13.86488c1.51003-1.51001,3.95828-1.51001,5.46831,0l13.86502,13.86488c1.51003,1.51001,3.95828,1.51001,5.46831,0l13.86504-13.8649c1.51002-1.51001,3.95826-1.51002,5.46829-.00002l14.66844,14.66811c.71249.71247,1.93074.20787,1.93074-.79973V3.99987H12Z" fill="currentColor" stroke-width="0"/><rect x="0" y="0" width="256" height="4" fill="#3e3a39" stroke-width="0"/></svg>